<?xml version="1.0" ?><svg data-name="Layer 1" id="Layer_1" viewBox="0 0 60 60" xmlns="http://www.w3.org/2000/svg" xmlns:xlink="http://www.w3.org/1999/xlink"><defs><style>.cls-1,.cls-10,.cls-11,.cls-2,.cls-6,.cls-7{fill:none;}.cls-1{clip-rule:evenodd;}.cls-2,.cls-5{fill-rule:evenodd;}.cls-3{clip-path:url(#clip-path);}.cls-4{clip-path:url(#clip-path-2);}.cls-5{fill:#fe8657;}.cls-10,.cls-11,.cls-6{stroke:#fe8657;}.cls-10,.cls-6{stroke-linecap:round;}.cls-10,.cls-11,.cls-6,.cls-7{stroke-linejoin:round;}.cls-6{stroke-width:4px;}.cls-7{stroke:#e06c3e;}.cls-11,.cls-7{stroke-linecap:square;}.cls-10,.cls-11,.cls-7{stroke-width:2px;}.cls-8{clip-path:url(#clip-path-4);}.cls-9{fill:#ffdc82;}</style><clipPath id="clip-path"><path class="cls-1" d="M1,46V18a5,5,0,0,1,5-5H54a5,5,0,0,1,5,5V46a5,5,0,0,1-5,5H6A5,5,0,0,1,1,46Zm2,0a3,3,0,0,0,3,3H54a3,3,0,0,0,3-3V18a3,3,0,0,0-3-3H6a3,3,0,0,0-3,3V46ZM-19,71H79V-7H-19V71Z"/></clipPath><clipPath id="clip-path-2"><path class="cls-1" d="M2,46a4,4,0,0,0,4,4H54a4,4,0,0,0,4-4V18a4,4,0,0,0-4-4H6a4,4,0,0,0-4,4V46Z"/></clipPath><clipPath id="clip-path-4"><path class="cls-1" d="M9,29a2,2,0,0,0,2,2H22a2,2,0,0,0,2-2V23a2,2,0,0,0-2-2H11a2,2,0,0,0-2,2v6Z"/></clipPath></defs><title/><g class="cls-3"><g class="cls-4"><path class="cls-5" d="M2,46a4,4,0,0,0,4,4H54a4,4,0,0,0,4-4V18a4,4,0,0,0-4-4H6a4,4,0,0,0-4,4V46Z"/></g></g><g class="cls-4"><path class="cls-6" d="M2,46a4,4,0,0,0,4,4H54a4,4,0,0,0,4-4V18a4,4,0,0,0-4-4H6a4,4,0,0,0-4,4V46Z"/></g><line class="cls-7" x1="9" x2="28" y1="39" y2="39"/><line class="cls-7" x1="32" x2="51" y1="39" y2="39"/><g class="cls-8"><rect class="cls-9" height="20" width="25" x="4" y="16"/></g><path class="cls-10" d="M9,29a2,2,0,0,0,2,2H22a2,2,0,0,0,2-2V23a2,2,0,0,0-2-2H11a2,2,0,0,0-2,2v6Z"/><line class="cls-11" x1="18" x2="18" y1="31" y2="21"/><line class="cls-11" x1="9" x2="17" y1="27" y2="27"/><line class="cls-11" x1="18" x2="24" y1="25" y2="25"/></svg>